<?xml version="1.0" encoding="UTF-8" standalone="no"?>
<svg
   xmlns:dc="http://purl.org/dc/elements/1.1/"
   xmlns:cc="http://creativecommons.org/ns#"
   xmlns:rdf="http://www.w3.org/1999/02/22-rdf-syntax-ns#"
   xmlns:svg="http://www.w3.org/2000/svg"
   xmlns="http://www.w3.org/2000/svg"
   xmlns:sodipodi="http://sodipodi.sourceforge.net/DTD/sodipodi-0.dtd"
   xmlns:inkscape="http://www.inkscape.org/namespaces/inkscape"
   id="Layer_1"
   version="1.1"
   viewBox="0 0 864.00003 1728"
   xml:space="preserve"
   sodipodi:docname="press-white.svg"
   inkscape:version="0.92.4 (5da689c313, 2019-01-14)"
   width="5in"
   height="10in"><metadata
     id="metadata881"><rdf:RDF><cc:Work
         rdf:about=""><dc:format>image/svg+xml</dc:format><dc:type
           rdf:resource="http://purl.org/dc/dcmitype/StillImage" /><dc:title></dc:title></cc:Work></rdf:RDF></metadata><defs
     id="defs879" /><sodipodi:namedview
     pagecolor="#ffffff"
     bordercolor="#666666"
     borderopacity="1"
     objecttolerance="10"
     gridtolerance="10"
     guidetolerance="10"
     inkscape:pageopacity="0"
     inkscape:pageshadow="2"
     inkscape:window-width="2878"
     inkscape:window-height="1578"
     id="namedview877"
     showgrid="false"
     inkscape:zoom="0.878125"
     inkscape:cx="-93.017814"
     inkscape:cy="184.24435"
     inkscape:window-x="0"
     inkscape:window-y="20"
     inkscape:window-maximized="1"
     inkscape:current-layer="Layer_1"
     units="in"
     fit-margin-top="0"
     fit-margin-left="0"
     fit-margin-right="0"
     fit-margin-bottom="0"
     scale-x="1.8" /><style
     type="text/css"
     id="style868">
	.st0{fill:#A09790;}
	.st1{fill:none;stroke:#A09790;stroke-width:2;stroke-miterlimit:10;}
	.st2{fill:#E5DDD6;}
	.st3{fill:#F17C48;stroke:#281705;stroke-width:2;stroke-linecap:round;stroke-miterlimit:10;}
	.st4{fill:#541731;}
	.st5{fill:#281705;}
	.st6{fill:#FADDCA;}
	.st7{fill:#C83B3D;}
	.st8{fill:#29162B;}
	.st9{fill:#F17C48;}
	.st10{fill:none;stroke:#281705;stroke-linecap:round;stroke-miterlimit:10;}
	.st11{fill:none;stroke:#281705;stroke-width:2.4;stroke-miterlimit:10;}
	.st12{fill:none;stroke:#281705;stroke-width:1.1667;stroke-linecap:round;stroke-miterlimit:10;}
	.st13{fill:none;stroke:#281705;stroke-width:3;stroke-miterlimit:10;}
	.st14{fill:none;stroke:#281705;stroke-width:4;stroke-miterlimit:10;}
	.st15{fill:none;stroke:#281705;stroke-width:3.9881;stroke-miterlimit:10;}
	.st16{fill:none;stroke:#281705;stroke-width:4;stroke-linecap:round;stroke-miterlimit:10;}
	.st17{fill:none;stroke:#281705;stroke-width:3;stroke-linecap:round;stroke-miterlimit:10;}
	.st18{fill:#BADDDB;}
	.st19{fill:#DFEDF2;}
	.st20{fill:#9BC4C1;}
	.st21{fill:#F4F2F0;}
	.st22{fill:#FFFFFF;}
	.st23{fill:#DBD5D1;}
	.st24{fill:none;stroke:#281705;stroke-width:6;stroke-linecap:round;stroke-miterlimit:10;}
	.st25{fill:none;}
</style><rect
     class="st0"
     height="232.17612"
     width="496.53854"
     x="189.56526"
     y="1325.8877"
     id="rect870"
     style="fill:#a09790;stroke-width:19.93821526" /><path
     class="st5"
     d="M 778.5627,1581.281 H 754.59187 V 722.23033 h 23.97083 c 18.83423,0 34.24403,-20.896 34.24403,-46.4358 0,-25.5398 -15.4098,-46.4358 -34.24403,-46.4358 H 110.80399 c -18.834228,0 -34.244035,20.896 -34.244035,46.4358 0,25.5398 15.409807,46.4358 34.244035,46.4358 H 121.0772 V 1581.281 h -10.27321 c -18.834228,0 -34.244035,20.8959 -34.244035,46.4358 0,25.5398 15.409807,46.4345 34.244035,46.4345 H 778.5627 c 18.83423,0 34.24403,-20.8947 34.24403,-46.4345 0,-25.5399 -15.4098,-46.4358 -34.24403,-46.4358 z M 189.56527,1534.8465 V 768.66483 H 686.1038 v 766.18167 z"
     id="path872"
     inkscape:connector-curvature="0"
     style="fill:#281705;stroke-width:19.93821526" /><path
     class="st5"
     d="M 607.34252,884.75307 H 463.51757 V 181.25945 c 17.12202,-6.96576 32.53183,-16.25214 37.66845,-39.47003 h 37.66843 c 18.83422,0 34.24403,-20.89597 34.24403,-46.435789 0,-25.53852 -15.40981,-46.4345 -34.24403,-46.4345 H 350.51226 c -18.83423,0 -34.24404,20.89598 -34.24404,46.4345 0,25.539819 15.40981,46.435789 34.24404,46.435789 h 37.66843 c 5.13661,23.21789 23.97082,32.50427 23.97082,39.47003 V 884.75307 H 264.90216 c -18.83422,0 -34.24404,20.896 -34.24404,46.4358 0,25.53851 15.40982,46.43451 34.24404,46.43451 h 342.44036 c 18.83421,0 34.24403,-20.896 34.24403,-46.43451 0,-25.5398 -15.40982,-46.4358 -34.24403,-46.4358 z"
     id="path874"
     inkscape:connector-curvature="0"
     style="fill:#281705;stroke-width:19.93821526" /><path
     style="opacity:1;fill:#ffffff;fill-opacity:1;stroke:none;stroke-width:0.70954496;stroke-miterlimit:4;stroke-dasharray:none;stroke-opacity:1"
     d="m 99.972976,1672.4493 c -11.479101,-5.5628 -19.102981,-16.2224 -22.413561,-31.3394 -2.28914,-10.4526 -2.28822,-16.5033 0.004,-26.9713 2.51653,-11.4905 8.80311,-22.0065 16.591697,-27.7556 5.324604,-3.9294 8.411998,-4.9597 16.609308,-5.5434 l 10.06894,-0.7118 V 1151.7195 723.30973 l -10.06894,-0.7118 c -8.19731,-0.5824 -11.284704,-1.614 -16.609308,-5.5447 -16.577057,-12.2334 -22.647827,-39.3186 -14.114307,-62.97 3.37433,-9.3524 7.70888,-15.1365 15.668317,-20.9103 l 5.016538,-3.6394 155.68241,-0.4401 155.68241,-0.44 V 404.64385 180.63432 l -5.17915,-6.07012 c -9.34988,-10.95858 -14.99379,-19.36745 -17.16795,-25.58124 l -2.14012,-6.11541 h -20.43868 c -23.30867,0 -29.60934,-1.7382 -38.08644,-10.51594 -11.04655,-11.43746 -15.98496,-33.694999 -11.52052,-51.920909 2.45614,-10.0267 10.07932,-22.26531 16.99251,-27.27931 l 5.03084,-3.64984 103.56566,-0.45299 103.56566,-0.453 7.56735,5.05154 c 12.5024,8.34674 18.98602,22.43874 19.01468,41.3299 0.0297,18.759139 -6.68955,33.649699 -19.23113,42.625459 -5.86126,4.19473 -6.98246,4.38369 -29.44787,4.95964 -23.15357,0.59537 -23.36065,0.63419 -24.05464,4.38109 -2.00032,10.80715 -17.30575,26.83538 -30.88893,32.34638 l -5.17925,2.1019 v 223.65231 223.65235 h 160.03524 c 177.53991,0 166.1145,-0.7119 176.17837,10.9689 2.76391,3.2085 6.52948,9.3032 8.36795,13.5432 2.97569,6.8648 3.3427,9.3434 3.3427,22.5837 0,13.2391 -0.36691,15.7189 -3.3427,22.5825 -1.83847,4.2413 -5.60404,10.336 -8.36795,13.5432 -7.50668,8.7143 -13.79147,10.9702 -30.54983,10.9702 H 755.7496 v 428.82387 428.8238 h 13.79327 c 18.59992,0 24.84833,2.6079 33.11873,13.8228 8.11274,11 10.92295,21.4589 10.0765,37.5014 -0.69994,13.265 -4.37673,23.0134 -12.03199,31.8986 -10.28617,11.9383 21.14463,10.9767 -356.23376,10.8964 -274.88429,0 -340.93593,-0.4789 -344.499374,-2.208 z M 685.87827,1377.0064 c -0.44569,-87.402 -0.8104,-259.9229 -0.8104,-383.37942 V 769.16053 H 574.78023 464.4925 v 56.9298 56.92974 l 75.25156,0.4918 75.25157,0.4918 6.09325,3.8026 c 7.74759,4.8354 13.38118,12.1609 17.40815,22.6381 4.53903,11.8076 4.53299,29.4899 -0.0134,41.41661 -4.00237,10.4978 -10.99694,19.1655 -18.73012,23.2101 -5.76366,3.0144 -12.31264,3.1257 -184.50785,3.1257 H 256.71284 l -5.66572,-3.5515 c -6.86389,-4.3035 -14.30061,-14.0648 -17.47816,-22.9435 -1.4206,-3.9695 -2.54005,-11.31451 -2.8379,-18.62071 -0.44703,-10.9663 -0.13353,-13.0527 3.43626,-22.8865 2.84773,-7.8433 5.42323,-12.2516 9.36351,-16.027 10.9333,-10.4732 7.18356,-10.0383 91.48021,-10.6182 l 77.07955,-0.5306 v -56.93104 -56.9323 H 301.19352 190.29647 l -7.1e-4,225.97945 c -3.9e-4,124.28872 -0.36509,296.80962 -0.8104,383.38072 l -0.80954,157.3999 h 249.0064 249.00639 z"
     id="path883"
     inkscape:connector-curvature="0" /><path
     style="opacity:1;fill:#b3b3b3;fill-opacity:1;stroke:none;stroke-width:0.70954496;stroke-miterlimit:4;stroke-dasharray:none;stroke-opacity:1"
     d="m 190.02468,1445.3154 c -0.34604,-48.9247 -0.3516,-96.1448 -0.0125,-104.9342 l 0.61637,-15.9803 h 247.04606 247.04583 l 0.62373,46.683 c 0.34317,25.6757 0.34088,72.8958 -0.005,104.9328 l -0.62852,58.2512 H 437.68207 190.65369 Z"
     id="path885"
     inkscape:connector-curvature="0" /><path
     style="opacity:1;fill:#b3b3b3;fill-opacity:1;stroke:none;stroke-width:0.70954496;stroke-miterlimit:4;stroke-dasharray:none;stroke-opacity:1"
     d="m 190.29647,1476.7001 c 0,-31.663 -0.25712,-80.1851 -0.57138,-107.8256 -0.31416,-27.6417 -0.27396,-48.957 0.089,-47.3663 0.62652,2.7425 13.49202,2.8927 247.77138,2.8927 h 247.11067 l 0.82151,19.4166 c 0.45181,10.679 0.44674,57.8991 -0.0105,104.9329 l -0.83328,85.5175 H 437.48508 190.29647 Z"
     id="path887"
     inkscape:connector-curvature="0" /></svg>