<?xml version="1.0" encoding="UTF-8" standalone="no"?>
<svg
   xmlns:dc="http://purl.org/dc/elements/1.1/"
   xmlns:cc="http://creativecommons.org/ns#"
   xmlns:rdf="http://www.w3.org/1999/02/22-rdf-syntax-ns#"
   xmlns:svg="http://www.w3.org/2000/svg"
   xmlns="http://www.w3.org/2000/svg"
   xmlns:sodipodi="http://sodipodi.sourceforge.net/DTD/sodipodi-0.dtd"
   xmlns:inkscape="http://www.inkscape.org/namespaces/inkscape"
   id="Layer_1"
   style="enable-background:new 0 0 100 100;"
   version="1.1"
   viewBox="0 0 100 100"
   xml:space="preserve"
   sodipodi:docname="press-white.svg"
   inkscape:version="0.92.4 (5da689c313, 2019-01-14)"><metadata
     id="metadata881"><rdf:RDF><cc:Work
         rdf:about=""><dc:format>image/svg+xml</dc:format><dc:type
           rdf:resource="http://purl.org/dc/dcmitype/StillImage" /><dc:title></dc:title></cc:Work></rdf:RDF></metadata><defs
     id="defs879" /><sodipodi:namedview
     pagecolor="#ffffff"
     bordercolor="#666666"
     borderopacity="1"
     objecttolerance="10"
     gridtolerance="10"
     guidetolerance="10"
     inkscape:pageopacity="0"
     inkscape:pageshadow="2"
     inkscape:window-width="2878"
     inkscape:window-height="1578"
     id="namedview877"
     showgrid="false"
     inkscape:zoom="14.05"
     inkscape:cx="50"
     inkscape:cy="61.3879"
     inkscape:window-x="0"
     inkscape:window-y="20"
     inkscape:window-maximized="1"
     inkscape:current-layer="Layer_1" /><style
     type="text/css"
     id="style868">
	.st0{fill:#A09790;}
	.st1{fill:none;stroke:#A09790;stroke-width:2;stroke-miterlimit:10;}
	.st2{fill:#E5DDD6;}
	.st3{fill:#F17C48;stroke:#281705;stroke-width:2;stroke-linecap:round;stroke-miterlimit:10;}
	.st4{fill:#541731;}
	.st5{fill:#281705;}
	.st6{fill:#FADDCA;}
	.st7{fill:#C83B3D;}
	.st8{fill:#29162B;}
	.st9{fill:#F17C48;}
	.st10{fill:none;stroke:#281705;stroke-linecap:round;stroke-miterlimit:10;}
	.st11{fill:none;stroke:#281705;stroke-width:2.4;stroke-miterlimit:10;}
	.st12{fill:none;stroke:#281705;stroke-width:1.1667;stroke-linecap:round;stroke-miterlimit:10;}
	.st13{fill:none;stroke:#281705;stroke-width:3;stroke-miterlimit:10;}
	.st14{fill:none;stroke:#281705;stroke-width:4;stroke-miterlimit:10;}
	.st15{fill:none;stroke:#281705;stroke-width:3.9881;stroke-miterlimit:10;}
	.st16{fill:none;stroke:#281705;stroke-width:4;stroke-linecap:round;stroke-miterlimit:10;}
	.st17{fill:none;stroke:#281705;stroke-width:3;stroke-linecap:round;stroke-miterlimit:10;}
	.st18{fill:#BADDDB;}
	.st19{fill:#DFEDF2;}
	.st20{fill:#9BC4C1;}
	.st21{fill:#F4F2F0;}
	.st22{fill:#FFFFFF;}
	.st23{fill:#DBD5D1;}
	.st24{fill:none;stroke:#281705;stroke-width:6;stroke-linecap:round;stroke-miterlimit:10;}
	.st25{fill:none;}
</style><rect
     class="st0"
     height="10"
     width="29"
     x="34"
     y="68"
     id="rect870" /><path
     class="st5"
     d="M68.4,79H67V42h1.4c1.1,0,2-0.9,2-2c0-1.1-0.9-2-2-2h-39c-1.1,0-2,0.9-2,2c0,1.1,0.9,2,2,2H30v37h-0.6  c-1.1,0-2,0.9-2,2c0,1.1,0.9,2,2,2h39c1.1,0,2-0.9,2-2C70.4,79.9,69.5,79,68.4,79z M34,77V44h29v33H34z"
     id="path872" /><path
     class="st5"
     d="M58.4,49H50V18.7c1-0.3,1.9-0.7,2.2-1.7h2.2c1.1,0,2-0.9,2-2c0-1.1-0.9-2-2-2h-11c-1.1,0-2,0.9-2,2  c0,1.1,0.9,2,2,2h2.2c0.3,1,1.4,1.4,1.4,1.7V49h-8.6c-1.1,0-2,0.9-2,2c0,1.1,0.9,2,2,2h20c1.1,0,2-0.9,2-2  C60.4,49.9,59.5,49,58.4,49z"
     id="path874" /><path
     style="opacity:1;fill:#ffffff;fill-opacity:1;stroke:none;stroke-width:0.03558719;stroke-miterlimit:4;stroke-dasharray:none;stroke-opacity:1"
     d="m 28.767422,82.926649 c -0.670429,-0.239578 -1.115697,-0.698704 -1.309049,-1.349791 -0.133696,-0.450205 -0.133642,-0.71081 2.4e-4,-1.161641 0.146976,-0.494922 0.51414,-0.947882 0.969027,-1.195463 0.31098,-0.169256 0.491297,-0.213639 0.970055,-0.238768 l 0.58807,-0.03087 V 60.498221 42.04632 l -0.58807,-0.03086 C 28.918937,41.990326 28.73862,41.945944 28.42764,41.776687 27.459468,41.249742 27.104909,40.0832 27.603303,39.06452 c 0.197076,-0.402809 0.450232,-0.651971 0.915098,-0.900662 l 0.292987,-0.156741 9.092527,-0.01885 9.092526,-0.01885 V 28.321135 18.672858 L 46.69395,18.411419 c -0.546073,-0.471964 -0.875702,-0.834162 -1.002682,-1.101753 l -0.124993,-0.263403 h -1.193707 c -1.361327,0 -1.729314,-0.07493 -2.224413,-0.452971 -0.645166,-0.492621 -0.933591,-1.451216 -0.672848,-2.23624 0.143449,-0.431885 0.588676,-0.959002 0.992436,-1.174974 l 0.293823,-0.157167 6.048683,-0.01936 6.048683,-0.01937 0.441966,0.217579 c 0.730195,0.359473 1.108866,0.966453 1.11054,1.780107 0.0017,0.807957 -0.390699,1.449288 -1.123182,1.835888 -0.342322,0.180675 -0.407805,0.188809 -1.719883,0.213623 -1.352269,0.02557 -1.364363,0.0272 -1.404895,0.188691 -0.116827,0.465476 -1.010731,1.155813 -1.804047,1.393216 l -0.302491,0.09052 v 9.632862 9.632862 h 9.346751 c 10.3691,0 9.701807,-0.03064 10.28958,0.472472 0.161424,0.138173 0.38135,0.400669 0.488725,0.583326 0.173793,0.295639 0.195228,0.402434 0.195228,0.972672 0,0.570238 -0.02143,0.677033 -0.195228,0.972672 -0.107375,0.182657 -0.327301,0.445153 -0.488725,0.583326 -0.438423,0.375274 -0.805482,0.472472 -1.784242,0.472472 H 67.067616 V 60.49822 78.967971 h 0.805587 c 1.086316,0 1.45125,0.112323 1.934277,0.59535 0.47382,0.473819 0.637948,0.924294 0.588511,1.61525 -0.04088,0.571331 -0.25562,0.991167 -0.70272,1.373867 -0.600757,0.514226 1.234938,0.472814 -20.805594,0.469348 -16.054433,-0.0025 -19.912135,-0.02077 -20.120255,-0.09514 z M 62.986828,70.201744 c -0.02603,-3.764486 -0.04733,-11.195091 -0.04733,-16.512456 V 44.021352 H 56.498221 50.05694 v 2.452002 2.452 l 4.395017,0.02131 4.395018,0.02131 0.355872,0.163787 c 0.452493,0.208258 0.781519,0.523786 1.016711,0.975003 0.265099,0.508593 0.264747,1.270196 -8.26e-4,1.783876 -0.233756,0.452139 -0.642269,0.82545 -1.093921,0.999656 -0.336622,0.129839 -0.719111,0.134617 -10.776057,0.134617 H 37.921708 l -0.330902,-0.152966 c -0.400881,-0.185314 -0.835218,-0.605775 -1.0208,-0.988184 -0.08297,-0.170963 -0.14835,-0.487338 -0.165746,-0.80202 -0.02611,-0.47231 -0.0078,-0.562164 0.200693,-0.985708 0.166319,-0.337842 0.31674,-0.527709 0.546869,-0.690282 0.638552,-0.4511 0.419551,-0.432352 5.34284,-0.457373 l 4.501779,-0.02288 v -2.452074 -2.452074 h -6.476868 -6.476868 l -4.2e-5,9.733096 c -2.2e-5,5.353203 -0.02132,12.783808 -0.04733,16.512456 l -0.04728,6.779359 h 14.543051 14.543052 z"
     id="path883"
     inkscape:connector-curvature="0" /><path
     style="opacity:1;fill:#b3b3b3;fill-opacity:1;stroke:none;stroke-width:0.03558719;stroke-miterlimit:4;stroke-dasharray:none;stroke-opacity:1"
     d="m 34.026831,73.143828 c -0.02021,-2.107193 -0.02054,-4.141001 -7.33e-4,-4.519573 l 0.036,-0.688312 h 14.428547 14.428546 l 0.03643,2.010676 c 0.02004,1.105872 0.01991,3.13968 -2.84e-4,4.519573 l -0.03671,2.508897 H 48.491095 34.063568 Z"
     id="path885"
     inkscape:connector-curvature="0" /><path
     style="opacity:1;fill:#b3b3b3;fill-opacity:1;stroke:none;stroke-width:0.03558719;stroke-miterlimit:4;stroke-dasharray:none;stroke-opacity:1"
     d="m 34.042705,74.49558 c 0,-1.363731 -0.01502,-3.453588 -0.03337,-4.644128 -0.01835,-1.190541 -0.016,-2.108569 0.0052,-2.040064 0.03659,0.118087 0.787992,0.124555 14.470921,0.124555 h 14.432332 l 0.04798,0.836299 c 0.02639,0.459964 0.02609,2.493772 -6.41e-4,4.519573 l -0.04867,3.683274 H 48.47959 34.042705 Z"
     id="path887"
     inkscape:connector-curvature="0" /></svg>