<?xml version="1.0" encoding="UTF-8" standalone="no"?>
<svg
   xmlns:dc="http://purl.org/dc/elements/1.1/"
   xmlns:cc="http://creativecommons.org/ns#"
   xmlns:rdf="http://www.w3.org/1999/02/22-rdf-syntax-ns#"
   xmlns:svg="http://www.w3.org/2000/svg"
   xmlns="http://www.w3.org/2000/svg"
   xmlns:sodipodi="http://sodipodi.sourceforge.net/DTD/sodipodi-0.dtd"
   xmlns:inkscape="http://www.inkscape.org/namespaces/inkscape"
   height="32"
   id="svg2"
   version="1.1"
   viewBox="0 0 32 32.000001"
   width="32"
   sodipodi:docname="regro-logo-white.svg"
   inkscape:version="0.92.1 r15371">
  <metadata
     id="metadata4569">
    <rdf:RDF>
      <cc:Work
         rdf:about="">
        <dc:format>image/svg+xml</dc:format>
        <dc:type
           rdf:resource="http://purl.org/dc/dcmitype/StillImage" />
        <dc:title></dc:title>
      </cc:Work>
    </rdf:RDF>
  </metadata>
  <sodipodi:namedview
     pagecolor="#ffffff"
     bordercolor="#666666"
     borderopacity="1"
     objecttolerance="10"
     gridtolerance="10"
     guidetolerance="10"
     inkscape:pageopacity="0"
     inkscape:pageshadow="2"
     inkscape:window-width="3838"
     inkscape:window-height="2082"
     id="namedview4567"
     showgrid="true"
     inkscape:zoom="57.78125"
     inkscape:cx="15.679827"
     inkscape:cy="16"
     inkscape:window-x="0"
     inkscape:window-y="38"
     inkscape:window-maximized="1"
     inkscape:current-layer="layer1">
    <inkscape:grid
       type="xygrid"
       id="grid4575" />
  </sodipodi:namedview>
  <defs
     id="defs4" />
  <g
     id="layer1"
     transform="translate(0,-1020.3622)">
    <path
       d="m 21.945159,1046.3389 c 0.24466,0.3556 0.504557,0.7338 0.728746,1.0598 0.43097,0.6267 0.423089,1.3676 0.117815,1.9518 -0.305276,0.5842 -0.907926,1.0117 -1.666442,1.0117 l -11.2505036,0 c -1.517029,0 -2.4106052,-1.71 -1.5486293,-2.9635 l 5.1821789,-7.5365 0,-5.5"
       id="path23363"
       style="display:inline;fill:none;fill-rule:evenodd;stroke:#ffffff;stroke-width:1.00000429;stroke-linecap:round;stroke-linejoin:round;stroke-miterlimit:4;stroke-dasharray:none;stroke-opacity:1" />
    <path
       d="m 12.999999,1043.6122 7.082817,0.019 -2.59109,-3.7682 0,-5.5"
       id="path23365"
       style="display:inline;fill:none;fill-rule:evenodd;stroke:#ffffff;stroke-width:1.00000429;stroke-linecap:round;stroke-linejoin:round;stroke-miterlimit:4;stroke-dasharray:none;stroke-opacity:1" />
    <path
       d="m 12.506999,1034.3622 5.986052,0"
       id="path23367"
       style="display:inline;fill:none;fill-rule:evenodd;stroke:#ffffff;stroke-width:1.00000441;stroke-linecap:round;stroke-linejoin:round;stroke-miterlimit:4;stroke-dasharray:none;stroke-opacity:1" />
    <path
       d="m 11.25378,1025.8683 1.195642,1.9434 c 1.831215,2.9765 3.050599,6.5556 3.050577,10.0505 m 0,4 c -4e-6,1.4976 -2.6e-5,4.4929 -2.6e-5,4.4929"
       id="path23369"
       style="fill:none;fill-rule:evenodd;stroke:#ffffff;stroke-width:0.99999994;stroke-linecap:round;stroke-linejoin:round;stroke-miterlimit:4;stroke-dasharray:none;stroke-opacity:1" />
    <path
       d="m 8.5000249,1022.3622 0,3.8457 a 3.7979313,3.7979313 0 0 0 3.1007021,3.7334 l 2.253833,0.4209 0.568765,-2.6874 a 3.5352667,3.5352667 0 0 0 -2.31347,-4.0766 z"
       id="path23371"
       style="fill:none;fill-rule:evenodd;stroke:#ffffff;stroke-width:0.99999994px;stroke-linecap:butt;stroke-linejoin:round;stroke-opacity:1" />
    <path
       d="m 14.750025,1032.8551 2,-2.5 3.5,-1.5"
       id="path23373"
       style="fill:none;fill-rule:evenodd;stroke:#ffffff;stroke-width:0.99999994px;stroke-linecap:round;stroke-linejoin:round;stroke-opacity:1" />
    <path
       d="m 17.000025,1030.3288 0.32335,-1.1654 a 2.7993707,2.7993707 0 0 1 3.17095,-2.0105 l 3.505701,0.6016 -2.479001,2.7122 a 2.75618,2.75618 0 0 1 -3.453613,0.5032 z"
       id="path23375"
       style="fill:none;fill-rule:evenodd;stroke:#ffffff;stroke-width:1.0015748;stroke-linecap:round;stroke-linejoin:round;stroke-opacity:1;stroke-miterlimit:4;stroke-dasharray:none" />
    <path
       d="m 16,1039.8622 a 0.49999998,0.49999998 0 0 1 -0.5,0.5 0.49999998,0.49999998 0 0 1 -0.500001,-0.5 0.49999998,0.49999998 0 0 1 0.500001,-0.5 0.49999998,0.49999998 0 0 1 0.5,0.5 z"
       id="path23379"
       style="opacity:1;fill:#ffffff;fill-opacity:1;stroke:none;stroke-width:0.26458445;stroke-linecap:round;stroke-linejoin:round;stroke-miterlimit:4;stroke-dasharray:none;stroke-opacity:1" />
    <path
       d="m 21.5,1044.8622 a 0.49999998,0.49999998 0 0 1 -0.5,0.5 0.49999998,0.49999998 0 0 1 -0.500001,-0.5 0.49999998,0.49999998 0 0 1 0.500001,-0.5 0.49999998,0.49999998 0 0 1 0.5,0.5 z"
       id="path23381"
       style="opacity:1;fill:#ffffff;fill-opacity:1;stroke:none;stroke-width:0.26458448;stroke-linecap:round;stroke-linejoin:round;stroke-miterlimit:4;stroke-dasharray:none;stroke-opacity:1;" />
  </g>
</svg>
