<?xml version="1.0" encoding="UTF-8" standalone="no"?>
<svg
   xmlns:dc="http://purl.org/dc/elements/1.1/"
   xmlns:cc="http://creativecommons.org/ns#"
   xmlns:rdf="http://www.w3.org/1999/02/22-rdf-syntax-ns#"
   xmlns:svg="http://www.w3.org/2000/svg"
   xmlns="http://www.w3.org/2000/svg"
   xmlns:sodipodi="http://sodipodi.sourceforge.net/DTD/sodipodi-0.dtd"
   xmlns:inkscape="http://www.inkscape.org/namespaces/inkscape"
   viewBox="0 0 64 64"
   version="1.1"
   id="svg975"
   sodipodi:docname="runthis-logo.svg"
   inkscape:version="0.92.4 (5da689c313, 2019-01-14)">
  <metadata
     id="metadata981">
    <rdf:RDF>
      <cc:Work
         rdf:about="">
        <dc:format>image/svg+xml</dc:format>
        <dc:type
           rdf:resource="http://purl.org/dc/dcmitype/StillImage" />
        <dc:title></dc:title>
      </cc:Work>
    </rdf:RDF>
  </metadata>
  <defs
     id="defs979" />
  <sodipodi:namedview
     pagecolor="#ffffff"
     bordercolor="#666666"
     borderopacity="1"
     objecttolerance="10"
     gridtolerance="10"
     guidetolerance="10"
     inkscape:pageopacity="0"
     inkscape:pageshadow="2"
     inkscape:window-width="2878"
     inkscape:window-height="1578"
     id="namedview977"
     showgrid="false"
     inkscape:zoom="14.75"
     inkscape:cx="52.216295"
     inkscape:cy="34.731061"
     inkscape:window-x="0"
     inkscape:window-y="20"
     inkscape:window-maximized="0"
     inkscape:current-layer="Speed" />
  <g
     id="Speed">
    <rect
       height="2"
       width="7"
       x="14.985497"
       y="29.338982"
       id="rect950" />
    <rect
       height="2"
       width="14"
       x="20"
       y="12"
       id="rect952" />
    <rect
       height="2"
       width="2"
       x="16"
       y="12"
       id="rect954" />
    <rect
       height="2"
       width="2"
       x="12"
       y="12"
       id="rect956" />
    <rect
       height="2"
       width="12"
       x="12.985497"
       y="35.338985"
       id="rect958" />
    <rect
       height="2"
       width="2"
       x="8"
       y="12"
       id="rect960" />
    <rect
       height="2"
       width="10"
       x="10.985497"
       y="41.338985"
       id="rect964" />
    <rect
       height="2"
       width="2"
       x="10.985497"
       y="29.338982"
       id="rect966" />
    <path
       d="M 55,8 H 9 a 7.008,7.008 0 0 0 -7,7 v 34 a 7.008,7.008 0 0 0 7,7 h 46 a 7.008,7.008 0 0 0 7,-7 V 15 A 7.008,7.008 0 0 0 55,8 Z m 5,41 a 5.006,5.006 0 0 1 -5,5 H 9 A 5.006,5.006 0 0 1 4,49 V 18 H 58 V 16 H 4 v -1 a 5.006,5.006 0 0 1 5,-5 h 46 a 5.006,5.006 0 0 1 5,5 z"
       id="path968"
       inkscape:connector-curvature="0" />
    <rect
       height="2"
       width="2"
       x="8.9854965"
       y="35.338985"
       id="rect970" />
    <rect
       height="2"
       width="2"
       x="6.9854975"
       y="41.338985"
       id="rect972" />
    <g
       id="g5272"
       transform="matrix(1.0473782,0,0,1.0691527,-4.6488986,-3.7350958)">
      <path
         stroke-miterlimit="10"
         id="XMLID_67_"
         d="m 57.859812,47.345641 h -10.567 c -0.472,0 -0.929,-0.167 -1.29,-0.471 l -13.434,-11.337 c -0.801,-0.676 -0.942,-1.834 -0.326,-2.674 l 3.617,-5.518 c 2.837,2.865 7.5,2.458 10,0 2.151,7.445 3.102,11.975 9.464,12.846 1.469,0.201 2.536,1.507 2.536,2.989 z"
         style="fill:none;stroke:#000000;stroke-width:2;stroke-linecap:round;stroke-linejoin:round;stroke-miterlimit:10"
         inkscape:connector-curvature="0" />
      <path
         stroke-miterlimit="10"
         id="XMLID_68_"
         d="m 33.180812,31.433641 15.402,12.684 c 0.179,0.147 0.404,0.228 0.636,0.228 h 8.641"
         style="fill:none;stroke:#000000;stroke-width:2;stroke-linecap:round;stroke-linejoin:round;stroke-miterlimit:10"
         inkscape:connector-curvature="0" />
      <line
         y2="31.34564"
         y1="33.345642"
         x2="48.859814"
         x1="44.859814"
         stroke-miterlimit="10"
         id="XMLID_71_"
         style="fill:none;stroke:#000000;stroke-width:2;stroke-linecap:round;stroke-linejoin:round;stroke-miterlimit:10" />
      <line
         y2="35.345642"
         y1="37.345642"
         x2="50.859814"
         x1="46.859814"
         stroke-miterlimit="10"
         id="XMLID_70_"
         style="fill:none;stroke:#000000;stroke-width:2;stroke-linecap:round;stroke-linejoin:round;stroke-miterlimit:10" />
    </g>
  </g>
</svg>
